HIERARCHY
ROOT Hips
{
  OFFSET 20.8908 103.298 6.67667
  CHANNELS 6 Xposition Yposition Zposition Zrotation Xrotation Yrotation
  JOINT RightUpLeg
  {
    OFFSET -8.9458 -8.66707 0.101652
    CHANNELS 3 Zrotation Xrotation Yrotation
    JOINT RightLeg
    {
      OFFSET 0 -44.4227 1.3727
      CHANNELS 3 Zrotation Xrotation Yrotation
      JOINT RightFoot
      {
        OFFSET 0.253549 -42.0924 -1.46059
        CHANNELS 3 Zrotation Xrotation Yrotation
        JOINT RightToes
        {
          OFFSET 0.04 -4.41509 8.4991
          CHANNELS 3 Zrotation Xrotation Yrotation
          End Site
          {
            OFFSET -0.08 -0.137448 9.77979
          }
        }
      }
    }
  }
  JOINT Spine
  {
    OFFSET 0 11.8905 0
    CHANNELS 3 Zrotation Xrotation Yrotation
    JOINT Spine1
    {
      OFFSET 0 25.6574 0.127663
      CHANNELS 3 Zrotation Xrotation Yrotation
      JOINT HEad
      {
        OFFSET 0 8.73416 0.011341
        CHANNELS 3 Zrotation Xrotation Yrotation
        End Site
        {
          OFFSET -0.29 12.7742 2.51395
        }
      }
      JOINT LeftShoulder1
      {
        OFFSET 8.99 -0.362252 -0.22
        CHANNELS 3 Zrotation Xrotation Yrotation
        JOINT LeftArm
        {
          OFFSET 10.2827 -0.00338 0.322123
          CHANNELS 3 Zrotation Xrotation Yrotation
          JOINT LeftForeArm
          {
            OFFSET 32.7669 0.099144 -1.42434
            CHANNELS 3 Zrotation Xrotation Yrotation
            JOINT LeftHand
            {
              OFFSET 27.5643 0.085362 1.02216
              CHANNELS 3 Zrotation Xrotation Yrotation
              End Site
              {
                OFFSET 16.7443 -0.6 1.50291
              }
            }
          }
        }
      }
      JOINT RightShoulder
      {
        OFFSET -8.99 -0.362252 -0.22
        CHANNELS 3 Zrotation Xrotation Yrotation
        JOINT RightArm
        {
          OFFSET -10.2827 -0.00338 0.322123
          CHANNELS 3 Zrotation Xrotation Yrotation
          JOINT RightForeArm
          {
            OFFSET -32.8971 0.099144 -1.42434
            CHANNELS 3 Zrotation Xrotation Yrotation
            JOINT RightHand
            {
              OFFSET -27.4921 0.085362 1.02216
              CHANNELS 3 Zrotation Xrotation Yrotation
              End Site
              {
                OFFSET -16.6312 -0.6 1.50291
              }
            }
          }
        }
      }
    }
  }
  JOINT LeftUpLeg
  {
    OFFSET 8.9458 -8.66707 0.101652
    CHANNELS 3 Zrotation Xrotation Yrotation
    JOINT LeftLeg
    {
      OFFSET 0 -44.4227 1.3727
      CHANNELS 3 Zrotation Xrotation Yrotation
      JOINT LeftFoot
      {
        OFFSET -0.253549 -42.0924 -1.46059
        CHANNELS 3 Zrotation Xrotation Yrotation
        JOINT LeftToes
        {
          OFFSET -0.04 -4.41509 8.4991
          CHANNELS 3 Zrotation Xrotation Yrotation
          End Site
          {
            OFFSET 0.08 -0.047448 9.77979
          }
        }
      }
    }
  }
}
MOTION
Frames:	19
Frame Time:	0.0166667
21.4667 103.474 5.41936 1.99083 0.00240455 6.98684 -3.93831 -23.2306 0.0332534 1.39812 34.4172 -5.2504 1.11087 -5.92601 -0.148109 0.0462048 0.000533964 0.662642 -0.385458 3.76458 0.475942 5.19858 26.9092 -1.69782 -10.4522 -7.97847 -2.90045 -2.38542e-015 -6.36111e-015 -7.95139e-016 -101.299 -16.1323 -29.8888 -16.1117 15.5413 -23.1521 0.368473 9.90896 -0.00117926 -6.73499 -0.0398135 -5.0637 99.9212 -28.0079 17.1605 17.1048 17.5335 34.3229 -0.369625 9.91382 0.00119886 -2.6566 -15.5796 0.42115 -2.41047 36.2402 12.4108 -5.18183 -6.02056 -0.0866989 8.44835e-012 -1.00124e-011 -1.98149e-012 
21.1821 103.389 6.06305 1.63667 -0.270823 6.77329 -3.1985 -22.7472 0.396972 1.547 34.7206 -5.39021 0.891351 -6.48956 -0.152675 0.0615005 -0.330752 0.646742 -0.0652186 3.77525 0.500191 5.41317 27.041 -1.73215 -10.114 -7.87284 -2.81346 -3.97569e-016 -3.18055e-015 2.38542e-015 -101.304 -16.1711 -29.8034 -16.1553 15.6054 -23.5617 0.368473 9.90896 -0.00117926 -6.61664 -0.0408099 -5.04198 100.231 -28.0311 17.6169 16.9683 17.4086 33.6423 -0.369625 9.91382 0.00119886 -2.10306 -15.7201 -0.53891 -3.04678 37.5812 13.7576 -5.13848 -5.82976 -0.0773546 -0.166436 -0.588996 0.394716 
20.8908 103.298 6.67667 1.28522 -0.512359 6.61619 -2.49774 -22.3149 0.686734 1.694 35.0411 -5.52261 0.693587 -7.05845 -0.157433 0.0771686 -0.622705 0.576365 0.266465 3.78349 0.517541 5.61264 27.1949 -1.76503 -9.82091 -7.85378 -2.81681 8.82781e-032 -6.36111e-015 7.95139e-016 -101.291 -16.1592 -29.7853 -16.1856 15.6648 -23.9445 0.368473 9.90896 -0.00117926 -6.49132 -0.0424328 -5.03836 100.439 -28.0278 18.0544 16.8493 17.3056 33.12 -0.369625 9.91382 0.00119886 -1.51469 -16.0904 -1.54157 -3.86255 39.1497 15.2012 -5.16101 -5.50157 -0.0624275 -0.324152 -0.692445 0.742649 
20.576 103.189 7.20346 0.937964 -0.674434 6.60842 -1.88066 -22.0155 0.784036 1.84485 35.401 -5.63254 0.55869 -7.64242 -0.162473 0.0940785 -0.787015 0.314484 0.617346 3.78483 0.516224 5.77366 27.4206 -1.7962 -9.67454 -8.10731 -3.08355 -3.97569e-016 9.54166e-015 -7.95139e-016 -101.213 -15.9942 -29.9521 -16.1866 15.7177 -24.2706 0.368473 9.90896 -0.00117926 -6.30423 -0.0461676 -5.07577 100.332 -27.9861 18.4572 16.7786 17.276 33.0373 -0.369625 9.91382 0.00119886 -0.83904 -17.0695 -2.70135 -5.10857 41.3764 16.8958 -5.43732 -4.88226 -0.0368391 -0.479843 0.466178 0.957206 
20.261 103.067 7.69352 0.614341 -0.772045 6.69641 -1.32921 -21.8124 0.764122 1.96733 35.8017 -5.73089 0.450673 -8.23368 -0.168201 0.109131 -0.931255 0.0541061 1.01 3.78296 0.503949 5.90523 27.6578 -1.82034 -9.55525 -8.4209 -3.45673 -1.98785e-015 -3.18055e-015 1.59028e-015 -101.145 -15.7812 -30.2204 -16.1601 15.7576 -24.5217 0.368473 9.90896 -0.00117926 -6.19181 -0.0500625 -5.1578 100.14 -27.8446 18.7951 16.7616 17.2896 33.1766 -0.369625 9.91382 0.00119886 -0.175443 -18.4488 -3.87114 -6.66618 43.9345 18.7565 -5.66896 -3.88333 0.00634247 -0.651849 2.49866 1.11188 
19.9601 102.941 8.17904 0.358624 -0.795711 6.86699 -0.861613 -21.697 0.615967 1.98106 36.2226 -5.84733 0.340129 -8.73938 -0.175567 0.129036 -1.39505 0.200599 1.45989 3.78076 0.484535 6.00802 27.8596 -1.83218 -9.36602 -8.59996 -3.83989 -8.82781e-032 -3.18055e-015 -1.59028e-015 -101.176 -15.5866 -30.5676 -16.099 15.77 -24.6251 0.368473 9.90896 -0.00117926 -6.35334 -0.0525433 -5.31856 100.068 -27.4872 19.0027 16.8296 17.335 33.4267 -0.369625 9.91382 0.00119886 0.42055 -20.1797 -5.05351 -8.61161 46.6717 20.8909 -5.53568 -2.26121 0.0830421 -0.942561 5.33659 1.46812 
19.6838 102.788 8.65695 0.0929794 -0.771626 7.09201 -0.424678 -21.6656 0.475682 2.03717 36.7516 -5.91107 0.248349 -9.42444 -0.183026 0.129562 -1.39403 -0.0200515 1.99609 3.77614 0.457888 6.08278 28.035 -1.8307 -9.12519 -8.77806 -4.22194 1.59028e-015 0 -0 -101.227 -15.4222 -30.9288 -16.0136 15.7778 -24.7146 0.368473 9.90896 -0.00117926 -6.54547 -0.0539639 -5.48938 99.9763 -27.0678 19.1705 16.926 17.3957 33.7517 -0.369625 9.91382 0.00119886 0.939063 -22.1725 -5.90504 -10.4714 49.5396 22.7983 -5.29904 -0.327431 0.171201 -1.08704 8.79728 1.38225 
19.4453 102.567 9.13206 -0.259719 -0.717376 7.36686 0.0383337 -21.7267 0.523973 2.30549 37.551 -5.72806 0.121945 -10.7154 -0.195189 0.125903 0.161792 -1.97041 2.67818 3.76832 0.419035 6.11199 28.1815 -1.80789 -8.77062 -9.0593 -4.56774 -7.95139e-016 3.18055e-015 -1.59028e-015 -101.236 -15.2963 -31.2639 -15.8974 15.7952 -24.8859 0.368473 9.90896 -0.00117926 -6.52106 -0.0544114 -5.61556 99.74 -26.7171 19.3776 17.0023 17.4464 34.0537 -0.369625 9.91382 0.00119886 1.43871 -24.4308 -6.0183 -11.4812 52.6403 23.7613 -5.12562 1.87742 0.2609 -0.26571 13.0538 -0.565108 
19.2504 102.334 9.61283 -0.657749 -0.649379 7.60775 0.495703 -21.836 0.615016 2.63452 38.3785 -5.6904 0.155294 -12.0346 -0.194794 0.209758 2.01249 -3.48063 3.43001 3.75622 0.386437 6.15129 28.288 -1.77942 -8.4517 -9.33792 -4.85406 7.95139e-016 -3.18055e-015 3.18055e-015 -101.254 -15.2862 -31.4779 -15.7906 15.8317 -25.1806 0.368473 9.90896 -0.00117926 -6.49081 -0.0543257 -5.68925 99.5337 -26.3843 19.5898 17.0692 17.5059 34.4065 -0.369625 9.91382 0.00119886 1.97108 -26.6723 -5.47156 -11.7484 55.6088 23.8953 -4.96826 3.78397 0.332964 0.479338 16.9607 -1.92308 
19.1202 102.127 10.117 -1.12716 -0.600805 7.7061 0.962366 -21.9889 0.656797 2.95428 39.0747 -6.33299 0.776943 -12.9421 -0.144073 0.113326 3.59367 -1.99026 4.25731 3.74001 0.38137 6.28831 28.3254 -1.76108 -8.34694 -9.49844 -5.01412 1.19271e-015 3.18055e-015 7.95139e-016 -101.314 -15.5073 -31.4068 -15.7494 15.9113 -25.7387 0.368473 9.90896 -0.00117926 -6.632 -0.0538541 -5.65318 99.4996 -26.06 19.7392 17.1346 17.6037 34.9521 -0.369625 9.91382 0.00119886 2.65666 -28.5952 -3.99606 -10.9533 58.1726 22.7276 -4.81569 4.67985 0.356 -1.26566 19.7863 0.929822 
19.021 101.962 10.6216 -1.53863 -0.538648 7.73165 1.35425 -22.0751 0.668286 3.28502 39.541 -7.08757 1.23649 -13.4518 -0.107533 -0.0758094 3.94064 -0.0143763 4.97397 3.71514 0.390411 6.41045 28.3457 -1.74488 -8.29753 -9.67525 -5.14161 1.98785e-015 -3.18055e-015 7.95139e-016 -101.414 -15.8567 -31.2196 -15.7147 15.9981 -26.3611 0.368473 9.90896 -0.00117926 -6.79759 -0.0531294 -5.60087 99.6094 -25.7513 20.007 17.1561 17.6779 35.3885 -0.369625 9.91382 0.00119886 3.35582 -30.1988 -2.17318 -9.39953 59.9926 20.9032 -4.70464 4.95361 0.353764 -3.0077 20.517 3.66953 
18.9181 101.86 11.1067 -1.75596 -0.438024 7.70818 1.58452 -21.9478 0.650292 3.63182 39.5657 -7.52192 0.604045 -13.253 -0.165976 0.0156286 0.899357 0.407248 5.35726 3.67352 0.408908 6.4214 28.4086 -1.72908 -8.1786 -10.0064 -5.31791 7.95139e-016 3.18055e-015 7.95139e-016 -101.616 -16.3169 -31.0289 -15.6268 16.0727 -26.9369 0.368473 9.90896 -0.00117926 -6.87546 -0.0522845 -5.62791 99.92 -25.385 20.622 17.1012 17.6657 35.3503 -0.369625 9.91382 0.00119886 3.82879 -31.3935 -0.503274 -7.67913 60.5788 19.3743 -4.65519 4.73216 0.339334 -1.19492 16.3833 1.14491 
18.8348 101.837 11.5815 -1.82645 -0.307786 7.66505 1.67673 -21.7111 0.565406 3.83739 39.3648 -7.67943 -0.161212 -12.8793 -0.234608 0.164922 -2.52756 0.366557 5.52278 3.62589 0.431819 6.35954 28.4625 -1.71063 -8.07702 -10.364 -5.51544 1.59028e-015 0 1.59028e-015 -101.769 -16.7454 -30.8401 -15.5535 16.1221 -27.3395 0.368473 9.90896 -0.00117926 -6.93809 -0.0514669 -5.67094 100.305 -25.1885 21.3665 16.961 17.6176 35.1667 -0.369625 9.91382 0.00119886 4.0633 -32.204 0.828582 -6.12059 60.1175 18.054 -4.71951 4.088 0.314718 0.0887723 12.3063 -1.01439 
18.7858 101.937 12.0462 -1.71879 -0.151711 7.64678 1.59979 -21.4165 0.36251 3.69165 39.0962 -7.38575 -0.227936 -12.8373 -0.239299 0.209588 -3.53567 0.320703 5.48837 3.57941 0.449332 6.2135 28.4886 -1.68461 -8.04367 -10.6596 -5.75745 1.59028e-015 -9.54166e-015 -0 -101.67 -16.8947 -30.737 -15.5728 16.1182 -27.3116 0.368473 9.90896 -0.00117926 -7.03493 -0.0505952 -5.69633 100.757 -25.5057 22.16 16.6525 17.5479 35.0167 -0.369625 9.91382 0.00119886 3.8889 -32.6138 1.32956 -5.25697 58.5949 17.1183 -5.01652 3.0014 0.284141 -1.86149 14.2847 2.45001 
18.7612 102.102 12.5082 -1.53357 0.03973 7.6316 1.43636 -21.0742 0.085585 3.42375 38.7098 -6.90487 -0.147451 -12.8979 -0.229999 0.216301 -3.68899 0.130303 5.32444 3.53674 0.471113 6.03638 28.4486 -1.65485 -8.05697 -10.9128 -5.97148 2.78299e-015 9.54166e-015 3.18055e-015 -101.548 -17.0542 -30.5905 -15.5983 16.0931 -27.1332 0.368473 9.90896 -0.00117926 -7.1228 -0.0495332 -5.71054 101.034 -25.9059 22.8477 16.3627 17.4974 34.9857 -0.369625 9.91382 0.00119886 3.50113 -32.7134 1.38835 -4.81397 56.1734 16.6234 -5.36744 1.8759 0.254309 -4.463 16.5202 6.54462 
18.7548 102.289 12.977 -1.36968 0.288019 7.60869 1.26486 -20.7139 -0.237631 3.21412 38.1974 -6.45458 -0.257513 -13.038 -0.237668 0.215306 -3.54203 -0.332398 5.10707 3.50461 0.505608 5.87248 28.2529 -1.61911 -8.12258 -11.0974 -6.05397 2.38542e-015 -3.18055e-015 3.18055e-015 -101.603 -17.5107 -30.2439 -15.5491 16.0731 -27.052 0.368473 9.90896 -0.00117926 -7.1459 -0.048348 -5.69697 100.715 -26.0332 23.1418 16.303 17.5334 35.3148 -0.369625 9.91382 0.00119886 3.08683 -32.5478 1.25172 -4.49152 52.9176 16.4642 -5.61785 1.11447 0.230943 -4.5942 14.2651 7.03877 
18.7699 102.496 13.4464 -1.20059 0.55357 7.58989 1.06441 -20.3277 -0.61056 2.9889 37.5951 -5.99308 -0.366193 -13.1457 -0.244864 0.212732 -3.31831 -0.642115 4.83705 3.47792 0.546654 5.73733 28.0366 -1.5909 -8.2042 -11.2631 -6.12041 -1.98785e-015 -3.18055e-015 3.97569e-015 -101.687 -18.0342 -29.8669 -15.4844 16.0436 -26.908 0.368473 9.90896 -0.00117926 -7.19166 -0.0471016 -5.69107 100.241 -26.0487 23.3149 16.3164 17.5885 35.7142 -0.369625 9.91382 0.00119886 2.6399 -32.197 0.925028 -4.39175 49.1165 16.9032 -5.8081 0.699109 0.22036 -3.86564 11.0015 6.23143 
18.8091 102.708 13.9037 -1.02914 0.811892 7.57528 0.831433 -19.9461 -1.09049 2.6717 36.9492 -5.48109 -0.368205 -13.0375 -0.241794 0.215981 -3.61829 -0.206506 4.53182 3.45284 0.597899 5.69063 27.9295 -1.59114 -8.29144 -11.4607 -6.27525 0 3.18055e-015 -0 -101.72 -18.4481 -29.6135 -15.4427 15.995 -26.5881 0.368473 9.90896 -0.00117926 -7.37875 -0.0456499 -5.74203 99.9979 -25.9844 23.6171 16.2972 17.606 35.8937 -0.369625 9.91382 0.00119886 2.2244 -31.7635 0.506471 -4.43055 45.0045 18.4162 -5.93824 0.768802 0.232813 -2.81181 8.57168 4.66287 
18.8683 102.932 14.3781 -0.866884 1.03907 7.58904 0.592331 -19.4836 -1.48827 2.439 36.2243 -5.12087 -0.341086 -12.9044 -0.2364 0.221315 -3.86665 0.343752 4.21742 3.43226 0.638358 5.64244 27.8571 -1.59441 -8.31897 -11.659 -6.44957 8.82781e-032 -6.36111e-015 7.95139e-016 -101.713 -18.8685 -29.3734 -15.4027 15.9364 -26.1995 0.368473 9.90896 -0.00117926 -7.55758 -0.0440155 -5.79208 99.761 -25.8551 23.8378 16.3089 17.6321 36.0938 -0.369625 9.91382 0.00119886 1.8292 -31.2227 -0.0290959 -4.3674 40.8073 19.8506 -5.97561 1.25567 0.262403 -2.05827 6.96718 3.39344 
